<?xml version="1.0" encoding="UTF-8" standalone="no"?>
<svg
   xmlns:dc="http://purl.org/dc/elements/1.1/"
   xmlns:cc="http://creativecommons.org/ns#"
   xmlns:rdf="http://www.w3.org/1999/02/22-rdf-syntax-ns#"
   xmlns:svg="http://www.w3.org/2000/svg"
   xmlns="http://www.w3.org/2000/svg"
   xmlns:sodipodi="http://sodipodi.sourceforge.net/DTD/sodipodi-0.dtd"
   xmlns:inkscape="http://www.inkscape.org/namespaces/inkscape"
   version="1.1"
   id="svg2"
   viewBox="0 0 48 48.000001"
   height="48"
   width="48"
   inkscape:version="0.91 r13725"
   sodipodi:docname="sensortile.svg">
  <sodipodi:namedview
     pagecolor="#ffffff"
     bordercolor="#666666"
     borderopacity="1"
     objecttolerance="10"
     gridtolerance="10"
     guidetolerance="10"
     inkscape:pageopacity="0"
     inkscape:pageshadow="2"
     inkscape:window-width="1280"
     inkscape:window-height="962"
     id="namedview33"
     showgrid="false"
     inkscape:zoom="4.9166667"
     inkscape:cx="-5.3184314"
     inkscape:cy="24.68233"
     inkscape:window-x="-8"
     inkscape:window-y="-8"
     inkscape:window-maximized="1"
     inkscape:current-layer="layer1" />
  <defs
     id="defs4">
    <clipPath
       clipPathUnits="userSpaceOnUse"
       id="clipPath3350">
      <path
         d="m 0,47 64.333,0 0,-47 L 0,0 0,47 Z"
         id="path3352" />
    </clipPath>
  </defs>
  <metadata
     id="metadata7">
    <rdf:RDF>
      <cc:Work
         rdf:about="">
        <dc:format>image/svg+xml</dc:format>
        <dc:type
           rdf:resource="http://purl.org/dc/dcmitype/StillImage" />
        <dc:title></dc:title>
      </cc:Work>
    </rdf:RDF>
  </metadata>
  <g
     transform="translate(0,-1004.3622)"
     id="layer1"
     style="fill:#39a9dc;fill-opacity:1;stroke:#39a9dc;stroke-opacity:1">
    <g
       id="g3344"
       transform="matrix(1.3254951,0,0,-1.3269376,-18.636472,1059.5454)"
       style="fill:#39a9dc;fill-opacity:1;stroke:#39a9dc;stroke-opacity:1">
      <g
         id="g3346"
         style="fill:#39a9dc;fill-opacity:1;stroke:#39a9dc;stroke-opacity:1">
        <g
           id="g3348"
           clip-path="url(#clipPath3350)"
           style="fill:#39a9dc;fill-opacity:1;stroke:#39a9dc;stroke-opacity:1">
          <g
             id="g3354"
             transform="translate(34.3569,22.4336)"
             style="fill:#39a9dc;fill-opacity:1;stroke:#39a9dc;stroke-opacity:1">
            <path
               d="m 0,0 c 0,-2.5 -2.027,-4.527 -4.527,-4.527 -2.5,0 -4.528,2.027 -4.528,4.527 0,2.5 2.028,4.527 4.528,4.527 C -2.027,4.527 0,2.5 0,0"
               style="fill:#39a9dc;fill-opacity:1;fill-rule:nonzero;stroke:#39a9dc;stroke-opacity:1"
               id="path3356"
               inkscape:connector-curvature="0" />
          </g>
          <g
             id="g3358"
             transform="translate(30.2241,23.1348)"
             style="fill:#39a9dc;fill-opacity:1;stroke:#39a9dc;stroke-opacity:1">
            <path
               d="M 0,0 -6.428,16.225"
               style="fill:#39a9dc;fill-opacity:1;stroke:#39a9dc;stroke-width:1;stroke-linecap:butt;stroke-linejoin:miter;stroke-miterlimit:10;stroke-dasharray:none;stroke-opacity:1"
               id="path3360"
               inkscape:connector-curvature="0" />
          </g>
          <g
             id="g3362"
             transform="translate(25.5229,39.3599)"
             style="fill:#39a9dc;fill-opacity:1;stroke:#39a9dc;stroke-opacity:1">
            <path
               d="m 0,0 c 0,-0.954 -0.773,-1.727 -1.727,-1.727 -0.955,0 -1.726,0.773 -1.726,1.727 0,0.954 0.771,1.727 1.726,1.727 C -0.773,1.727 0,0.954 0,0"
               style="fill:#39a9dc;fill-opacity:1;fill-rule:nonzero;stroke:#39a9dc;stroke-opacity:1"
               id="path3364"
               inkscape:connector-curvature="0" />
          </g>
          <g
             id="g3366"
             transform="translate(28.1226,22.6191)"
             style="fill:#39a9dc;fill-opacity:1;stroke:#39a9dc;stroke-opacity:1">
            <path
               d="M 0,0 18.119,-12.659"
               style="fill:#39a9dc;fill-opacity:1;stroke:#39a9dc;stroke-width:1;stroke-linecap:butt;stroke-linejoin:miter;stroke-miterlimit:10;stroke-dasharray:none;stroke-opacity:1"
               id="path3368"
               inkscape:connector-curvature="0" />
          </g>
          <g
             id="g3370"
             transform="translate(49.7729,9.96)"
             style="fill:#39a9dc;fill-opacity:1;stroke:#39a9dc;stroke-opacity:1">
            <path
               d="m 0,0 c 0,-1.95 -1.58,-3.531 -3.531,-3.531 -1.949,0 -3.532,1.581 -3.532,3.531 0,1.95 1.583,3.531 3.532,3.531 C -1.58,3.531 0,1.95 0,0"
               style="fill:#39a9dc;fill-opacity:1;fill-rule:nonzero;stroke:#39a9dc;stroke-opacity:1"
               id="path3372"
               inkscape:connector-curvature="0" />
          </g>
          <g
             id="g3374"
             transform="translate(49.4292,28.4478)"
             style="fill:#39a9dc;fill-opacity:1;stroke:#39a9dc;stroke-opacity:1">
            <path
               d="m 0,0 c 0,-1.222 -0.99,-2.211 -2.213,-2.211 -1.221,0 -2.211,0.989 -2.211,2.211 0,1.222 0.99,2.212 2.211,2.212 C -0.99,2.212 0,1.222 0,0"
               style="fill:#39a9dc;fill-opacity:1;fill-rule:nonzero;stroke:#39a9dc;stroke-opacity:1"
               id="path3376"
               inkscape:connector-curvature="0" />
          </g>
          <g
             id="g3378"
             transform="translate(23.6733,8.5654)"
             style="fill:#39a9dc;fill-opacity:1;stroke:#39a9dc;stroke-opacity:1">
            <path
               d="m 0,0 c 0,-1.465 -1.188,-2.652 -2.652,-2.652 -1.465,0 -2.653,1.187 -2.653,2.652 0,1.465 1.188,2.652 2.653,2.652 C -1.188,2.652 0,1.465 0,0"
               style="fill:#39a9dc;fill-opacity:1;fill-rule:nonzero;stroke:#39a9dc;stroke-opacity:1"
               id="path3380"
               inkscape:connector-curvature="0" />
          </g>
          <g
             id="g3382"
             transform="translate(18.144,23.4297)"
             style="fill:#39a9dc;fill-opacity:1;stroke:#39a9dc;stroke-opacity:1">
            <path
               d="m 0,0 c 0,-0.989 -0.803,-1.791 -1.793,-1.791 -0.99,0 -1.791,0.802 -1.791,1.791 0,0.99 0.801,1.793 1.791,1.793 C -0.803,1.793 0,0.99 0,0"
               style="fill:#39a9dc;fill-opacity:1;fill-rule:nonzero;stroke:#39a9dc;stroke-opacity:1"
               id="path3384"
               inkscape:connector-curvature="0" />
          </g>
          <g
             id="g3386"
             transform="translate(30.2241,23.1348)"
             style="fill:#39a9dc;fill-opacity:1;stroke:#39a9dc;stroke-opacity:1">
            <path
               d="M 0,0 -9.203,-14.569"
               style="fill:#39a9dc;fill-opacity:1;stroke:#39a9dc;stroke-width:1;stroke-linecap:butt;stroke-linejoin:miter;stroke-miterlimit:10;stroke-dasharray:none;stroke-opacity:1"
               id="path3388"
               inkscape:connector-curvature="0" />
          </g>
          <g
             id="g3390"
             transform="translate(25.3022,22.4336)"
             style="fill:#39a9dc;fill-opacity:1;stroke:#39a9dc;stroke-opacity:1">
            <path
               d="M 0,0 -8.951,0.997"
               style="fill:#39a9dc;fill-opacity:1;stroke:#39a9dc;stroke-width:1;stroke-linecap:butt;stroke-linejoin:miter;stroke-miterlimit:10;stroke-dasharray:none;stroke-opacity:1"
               id="path3392"
               inkscape:connector-curvature="0" />
          </g>
          <g
             id="g3394"
             transform="translate(28.4683,21.9609)"
             style="fill:#39a9dc;fill-opacity:1;stroke:#39a9dc;stroke-opacity:1">
            <path
               d="M 0,0 19.377,7.191"
               style="fill:#39a9dc;fill-opacity:1;stroke:#39a9dc;stroke-width:1;stroke-linecap:butt;stroke-linejoin:miter;stroke-miterlimit:10;stroke-dasharray:none;stroke-opacity:1"
               id="path3396"
               inkscape:connector-curvature="0" />
          </g>
        </g>
      </g>
    </g>
  </g>
</svg>
