<?xml version="1.0" encoding="UTF-8" standalone="no"?>
<svg xmlns:rdf="http://www.w3.org/1999/02/22-rdf-syntax-ns#" xmlns="http://www.w3.org/2000/svg" height="48" width="48" version="1.1" xmlns:cc="http://creativecommons.org/ns#" xmlns:dc="http://purl.org/dc/elements/1.1/" viewBox="0 0 48 48.000001">
 <defs>
  <clipPath id="clipPath3350" clipPathUnits="userSpaceOnUse">
   <path d="m0 485.02h533.9v-485.02h-533.9v485.02z"/>
  </clipPath>
 </defs>
 <g transform="translate(0 -1004.4)">
  <g transform="matrix(.17859 0 0 -.17860 -21.855 1071)">
   <g clip-path="url(#clipPath3350)">
    <g transform="translate(305.18 199.23)">
     <path d="m0 0c2.114 0.752 4.101 1.939 5.786 3.635 5.235 5.267 5.881 13.342 1.961 19.319-0.583 0.858-1.23 1.653-1.961 2.405-6.024 5.988-15.726 6.009-21.729 0-3.227-3.19-4.69-7.465-4.462-11.668l0.244-4.975-28.263 28.263-21.729-21.751c2.055-0.381 4.095-1.102 6.003-2.162 1.462-0.832 2.851-1.87 4.128-3.126 0.46-0.471 0.906-0.964 1.314-1.452 4.376-5.394 5.394-12.568 3.094-18.788-0.922-2.522-2.385-4.896-4.408-6.931-5.352-5.352-13.035-6.867-19.743-4.599-2.718 0.906-5.277 2.448-7.444 4.599-2.152 2.178-3.699 4.742-4.61 7.477-0.297 0.858-0.519 1.753-0.679 2.633l-21.734-21.73 28.061-28.056h-0.037l0.169-0.159-2.908 0.117-1.023 0.053-0.885 0.032h-0.106c-0.524 0.021-1.039 0.021-1.6 0-0.408-0.032-0.811-0.085-1.245-0.138-0.175-0.016-0.366-0.042-0.509-0.064-0.371-0.063-0.752-0.148-1.113-0.238-0.222-0.048-0.445-0.112-0.683-0.186-0.355-0.095-0.673-0.19-0.949-0.296-0.535-0.202-1.059-0.408-1.557-0.657-0.504-0.255-0.981-0.519-1.404-0.774l-0.038-0.042c-0.407-0.265-0.816-0.552-1.224-0.869-0.074-0.064-0.09-0.064-0.09-0.085l-0.079-0.048c-0.398-0.334-0.79-0.683-1.182-1.065-4.869-4.875-5.781-12.192-2.739-18.015l0.016-0.032c0.705-1.324 1.595-2.585 2.708-3.688 1.176-1.176 2.49-2.119 3.883-2.813 5.797-2.941 13.019-2.008 17.878 2.813 0.366 0.372 0.715 0.763 1.07 1.187 0.021 0.032 0.053 0.117 0.149 0.191 0.259 0.329 0.481 0.657 0.704 0.986 0.127 0.196 0.26 0.418 0.387 0.656 0.154 0.26 0.323 0.509 0.445 0.742 0.053 0.149 0.154 0.319 0.207 0.477 1.107 2.326 1.632 4.896 1.494 7.503l0.021 0.095-0.276 4.811 0.35-0.365v0.027l27.913-27.919 21.756 21.761c-0.116 0-0.259 0.022-0.424 0.064-0.19 0.032-0.339 0.074-0.408 0.095-0.09 0.011-0.185 0.043-0.275 0.053-0.038 0.022-0.154 0.037-0.244 0.064-0.366 0.079-0.726 0.191-1.002 0.265-0.349 0.106-0.667 0.239-0.884 0.318-0.408 0.127-0.684 0.265-0.949 0.371-0.588 0.233-1.112 0.519-1.642 0.816-0.578 0.318-1.15 0.667-1.67 1.044-0.116 0.084-0.285 0.164-0.37 0.254-0.313 0.222-0.562 0.429-0.736 0.572-0.102 0.058-0.059 0.058-0.102 0.069-0.031 0.032-0.052 0.064-0.121 0.106l-0.111 0.106c-0.446 0.35-0.838 0.71-1.208 1.081-0.922 0.927-1.76 1.95-2.449 3.009-4.938 7.45-4.127 17.592 2.449 24.167 7.502 7.493 19.663 7.503 27.17 0 0.032-0.063 0.091-0.09 0.106-0.111 0.334-0.35 0.637-0.694 0.912-1.017 0.053-0.064 0.148-0.159 0.244-0.276 0.063-0.047 0.148-0.159 0.201-0.27 0.18-0.202 0.35-0.424 0.514-0.673 0.244-0.297 0.445-0.594 0.578-0.869 0.254-0.318 0.423-0.646 0.535-0.858l0.021-0.043c0.09-0.158 0.169-0.328 0.26-0.487 0.031-0.064 0.132-0.201 0.222-0.403 0.085-0.206 0.148-0.333 0.164-0.36 0.17-0.339 0.313-0.705 0.446-1.065 0.089-0.217 0.185-0.45 0.28-0.699 0.127-0.377 0.233-0.737 0.35-1.081 0.037-0.207 0.127-0.445 0.186-0.7 0.089-0.408 0.18-0.821 0.254-1.203v-0.042l21.767 21.761-28.285 28.279 5.002-0.249c1.991-0.112 3.978 0.164 5.88 0.821" fill="#bacf1b"/>
    </g>
    <g transform="translate(216.24 196.38)">
     <path d="m0 0c-0.223-4.196 1.261-8.446 4.461-11.651 6.019-6.009 15.721-6.009 21.74 0 5.988 5.998 6.009 15.715 0 21.745-3.184 3.184-7.476 4.657-11.662 4.451l-5.002-0.271 28.258 28.279-21.719 21.724c-0.668-3.698-2.448-7.259-5.299-10.12-7.497-7.503-19.668-7.492-27.187 0v0.021c-7.503 7.513-7.503 19.658 0 27.171 2.136 2.13 4.668 3.656 7.354 4.563 0.022 0.015 0.075 0.026 0.165 0.058 0.853 0.286 1.727 0.519 2.612 0.673l-21.724 21.74-24.724-24.702-3.549-3.561 0.233 4.981c0.132 2.623-0.387 5.282-1.627 7.757-0.074 0.201-0.169 0.371-0.297 0.609l-0.042 0.048-0.032 0.042c-0.132 0.234-0.201 0.392-0.365 0.615l-0.027 0.026-0.032 0.069c-0.111 0.18-0.223 0.366-0.413 0.588l-0.021 0.038-0.011 0.031c-0.132 0.17-0.265 0.361-0.445 0.573l-0.244 0.286v0.01c-0.254 0.334-0.556 0.647-0.847 0.943 0 0-0.022 0.011-0.043 0.048-6.035 5.993-15.737 5.972-21.74 0-6.003-6.04-6.003-15.737 0-21.761 0.318-0.318 0.593-0.578 0.986-0.906l0.032-0.027h0.026v-0.021c0.032-0.01 0.069-0.048 0.122-0.095 0.222-0.181 0.413-0.318 0.63-0.482 0.149-0.112 0.281-0.202 0.445-0.313 0.816-0.546 1.648-1.002 2.501-1.378 0.292-0.122 0.477-0.212 0.668-0.28 0.291-0.091 0.54-0.186 0.763-0.25 0.286-0.095 0.53-0.174 0.827-0.233 0.228-0.063 0.45-0.106 0.763-0.18 0.476-0.106 1.017-0.18 1.568-0.244 0.249-0.026 0.487-0.042 0.647-0.063l0.19 0.021 0.059-0.021c0.513-0.011 0.98-0.011 1.425 0.021l5.038 0.286-3.581-3.561-0.016-0.021-24.723-24.702 21.755-21.761c0.668 3.704 2.417 7.259 5.305 10.125 7.518 7.487 19.668 7.514 27.181 0 0.949-0.938 1.738-1.949 2.427-3.02 4.965-7.465 4.138-17.591-2.427-24.15-2.887-2.883-6.438-4.632-10.131-5.299l21.746-21.74 28.257 28.257-0.254-4.986z" fill="#bacf1b"/>
    </g>
    <g transform="translate(311 361.72)">
     <path d="m0 0c-0.371 0.371-0.763 0.731-1.171 1.06-6.03 4.906-14.926 4.541-20.548-1.071-3.211-3.2-4.673-7.439-4.483-11.646l0.239-4.96-0.239 0.234v-0.016l-28.008 27.992-21.74-21.724c3.72-0.668 7.264-2.443 10.126-5.299 7.508-7.508 7.529-19.647 0-27.181 0 0-0.016 0-0.016-0.011-0.016-0.021-0.058-0.064-0.122-0.149-7.508-7.492-19.674-7.492-27.171 0-2.893 2.883-4.653 6.444-5.299 10.137l-21.597-21.581 28.284-28.3-5.002 0.275c-4.202 0.228-8.462-1.245-11.668-4.45-5.998-6.019-5.998-15.711 0-21.741 5.998-5.982 15.743-5.982 21.741 0 3.2 3.19 4.684 7.461 4.461 11.679l-0.27 4.98 28.273-28.284 21.746 21.762c-3.688 0.662-7.26 2.426-10.131 5.288-2.326 2.341-3.948 5.15-4.817 8.112-0.079 0.222-0.111 0.376-0.111 0.445-0.111 0.424-0.244 0.869-0.334 1.356-1.182 6.051 0.594 12.579 5.262 17.253 7.502 7.502 19.668 7.502 27.165 0 1.315-1.304 2.374-2.756 3.222-4.287 0.058-0.069 0.058-0.122 0.08-0.122 0.238-0.466 0.482-0.964 0.704-1.452 0.111-0.243 0.165-0.445 0.234-0.583 0.1-0.318 0.264-0.646 0.392-1.038 0.275-0.859 0.498-1.749 0.667-2.639l21.74 21.746-28.013 28.008h0.01l-0.212 0.212 4.716-0.212h0.169 0.075c4.18-0.186 8.461 1.271 11.646 4.451 5.982 6.029 5.982 15.747 0 21.756" fill="#bacf1b"/>
    </g>
    <g transform="translate(336.93 277.75)">
     <path d="m0 0c2.883 2.861 6.443 4.625 10.142 5.288l-21.756 21.745-28.247-28.262 0.238 4.98c0.223 4.218-1.255 8.467-4.445 11.668-6.014 6.003-15.716 6.003-21.74 0-5.977-6.02-5.998-15.716 0-21.735 3.205-3.2 7.487-4.684 11.667-4.461l5.007 0.264-28.283-28.273 21.729-21.745c0.657 3.719 2.459 7.259 5.293 10.131 7.519 7.503 19.679 7.482 27.171 0 7.514-7.514 7.514-19.669 0-27.171-2.856-2.862-6.411-4.637-10.12-5.299l21.73-21.767 24.718 24.723 3.56 3.54-0.259-4.954c-0.112-2.639 0.402-5.283 1.626-7.778 0.09-0.186 0.186-0.366 0.334-0.599l0.021-0.037 0.037-0.048c0.112-0.254 0.202-0.392 0.366-0.62l0.021-0.037 0.022-0.048c0.116-0.206 0.238-0.371 0.402-0.572l0.037-0.048 0.042-0.042c0.091-0.18 0.239-0.365 0.403-0.583l0.302-0.349v-0.011c0.276-0.297 0.551-0.615 0.848-0.912 6.019-5.987 15.726-5.987 21.74 0 5.982 6.03 6.003 15.727 0 21.746-0.307 0.307-0.609 0.593-0.98 0.906l-0.053 0.037v0.01h-0.016c-0.021 0.011-0.042 0.032-0.111 0.106-0.228 0.181-0.429 0.34-0.61 0.478-0.169 0.116-0.317 0.19-0.487 0.307-0.795 0.562-1.632 1.012-2.459 1.378-0.323 0.137-0.524 0.217-0.704 0.286-0.287 0.1-0.519 0.185-0.779 0.254-0.26 0.095-0.525 0.159-0.801 0.228-0.222 0.068-0.455 0.122-0.752 0.18-0.487 0.111-1.038 0.196-1.579 0.254-0.243 0.016-0.477 0.043-0.668 0.043h-0.185l-0.053 0.021c-0.509 0-0.964 0-1.388-0.027l-5.034-0.291 3.508 3.502v0.037l24.766 24.761-21.762 21.734c-0.646-3.688-2.405-7.248-5.272-10.109-6.099-6.094-15.26-7.254-22.524-3.433-1.664 0.879-3.238 2.013-4.663 3.433-7.487 7.492-7.487 19.668 0 27.166v0.005z" fill="#bacf1b"/>
    </g>
   </g>
  </g>
 </g>
</svg>
